<?xml version="1.0" encoding="utf-8"?>
<!-- Generator: Adobe Illustrator 17.0.0, SVG Export Plug-In . SVG Version: 6.00 Build 0)  -->
<!DOCTYPE svg PUBLIC "-//W3C//DTD SVG 1.1//EN" "http://www.w3.org/Graphics/SVG/1.1/DTD/svg11.dtd">
<svg version="1.1" xmlns="http://www.w3.org/2000/svg" xmlns:xlink="http://www.w3.org/1999/xlink" x="0px" y="0px" width="125px"
	 height="125px" viewBox="0 0 125 125" enable-background="new 0 0 125 125" xml:space="preserve">
<g id="layer4">
	<path fill-rule="evenodd" clip-rule="evenodd" fill="#003852" d="M88.005,102.039C66.06,93.01,69.534,80.217,75.902,72.627
		c0.606-0.722,0.789-1.625,0.514-2.526c-0.275-0.901-0.932-1.548-1.837-1.808c-4.338-1.248-9.133-2.696-13.994-4.345
		c-0.438,13.869,6.493,30.452,22.17,37.828C84.505,101.857,86.256,101.944,88.005,102.039z"/>
</g>
<g id="layer3">
	<path fill-rule="evenodd" clip-rule="evenodd" fill="#0070AD" d="M31.303,99.414c15.124,6.319,75.62,1.973,77.456,8.071
		c1.583,0.354,3.927,1.131,5.263,2.02c1.575,1.048,2.368,2.639,1.213,5.049c-0.886-1.725-3.293-2.048-4.984-2.426
		C76.925,115.644,50.312,113.634,31.303,99.414z"/>
</g>
<g id="layer2">
	<path fill-rule="evenodd" clip-rule="evenodd" fill="#0070AD" d="M78.881,101.605C52.8,88.581,55.959,59.901,61.627,44.628
		c0.267-0.719,0.232-1.435-0.105-2.124c-0.336-0.689-0.879-1.158-1.609-1.39C43.374,35.852,18.947,26.474,8.54,8.463
		c3.304,28.977,27.234,39.335,39.606,44.819C31.497,50.1,20.931,44.143,13.185,34.189c4.754,42.555,16.106,61.409,56.211,66.978
		l1.957,0.097C73.856,101.384,76.367,101.495,78.881,101.605z"/>
</g>
<g id="layer1">
	<path fill-rule="evenodd" clip-rule="evenodd" fill="#0070AD" d="M43.165,110.681C20.584,99.416,8.386,100.559,8.307,100.073
		c2.708,7.007,3.577,12.855,11.411,14.113C27.46,115.43,36.237,109.818,43.165,110.681z"/>
	<g>
	</g>
	<g>
	</g>
	<g>
	</g>
	<g>
	</g>
	<g>
	</g>
	<g>
	</g>
</g>
</svg>
